#!OML:ASF H:\Terrain\Patient Classification 1\Terrain2\Thursday\justin.ASF
:FULLY-SPECIFIED
:DEGREES
1062
root 1.01405 20.904 10.7502 59.8231 -86.3296 -59.084
lowerback 8.16586 -0.301368 6.08229
upperback 3.2069 -0.0517556 4.35014
thorax -1.24126 -0.0971408 1.09498
lowerneck -13.2257 -0.959078 -10.6839
upperneck 38.9154 -1.42902 3.69066
head 16.2496 -2.21511 3.1289
rclavicle -3.97569e-015 -7.95139e-015
rhumerus -24.9186 -3.54739 -77.8471
rradius 46.3193
rwrist -18.4441
rhand -24.7772 12.7264
rfingers 7.12502
rthumb 1.72678 -17.2463
lclavicle -3.97569e-015 -7.95139e-015
lhumerus -34.5607 5.56135 85.7652
lradius 34.2382
lwrist 5.33977
lhand -17.466 19.2778
lfingers 7.12502
lthumb 8.78571 49.0749
rfemur -9.76387 -4.99428 26.7845
rtibia 28.3574
rfoot -16.3424 -7.17355
rtoes 17.4935
lfemur -19.0315 -2.75463 -13.1853
ltibia 33.8648
lfoot -16.5706 -12.2539
ltoes -5.90985
1063
root 0.965555 20.889 10.7593 64.9867 -86.4269 -64.4122
lowerback 8.24331 -0.190229 5.94769
upperback 3.22066 0.0888056 4.47353
thorax -1.26714 -0.0311402 1.28571
lowerneck -13.1875 -0.972863 -10.7246
upperneck 38.9791 -1.42982 3.62469
head 16.2753 -2.23658 3.10715
rclavicle 0 1.90833e-014
rhumerus -24.9138 -3.3232 -77.7573
rradius 46.3373
rwrist -18.8707
rhand -24.1663 12.7438
rfingers 7.12502
rthumb 2.31676 -17.2234
lclavicle 0 1.90833e-014
lhumerus -34.5095 6.0976 85.8508
lradius 33.8373
lwrist 4.60295
lhand -17.0752 19.1637
lfingers 7.12502
lthumb 9.16277 48.9446
rfemur -9.46038 -5.0938 26.7593
rtibia 28.5074
rfoot -16.7425 -6.60005
rtoes 18.2961
lfemur -18.6081 -2.58815 -13.1346
ltibia 33.2044
lfoot -15.903 -12.3723
ltoes -3.81602
1064
root 0.910414 20.8746 10.7707 69.1137 -86.4661 -68.663
lowerback 8.13505 -0.133282 5.87361
upperback 3.27819 0.142388 4.51509
thorax -1.14684 -0.00343733 1.36447
lowerneck -13.2464 -0.982158 -10.7609
upperneck 39.0843 -1.45268 3.66058
head 16.3486 -2.25425 3.12764
rclavicle -7.7526e-015 -2.8625e-014
rhumerus -24.7851 -3.57546 -77.8189
rradius 46.0901
rwrist -18.1515
rhand -23.6601 12.7551
rfingers 7.12502
rthumb 2.80558 -17.2062
lclavicle -7.7526e-015 -2.8625e-014
lhumerus -34.6213 5.74579 86.111
lradius 33.8189
lwrist 4.73464
lhand -17.3562 19.2071
lfingers 7.12502
lthumb 8.89161 48.9998
rfemur -9.15578 -5.45826 26.7112
rtibia 28.6281
rfoot -16.8773 -5.95528
rtoes 18.1333
lfemur -18.1974 -2.52736 -13.0755
ltibia 32.6528
lfoot -14.8838 -12.8445
ltoes 2.63438
1065
root 0.854317 20.8666 10.7814 72.7468 -86.3355 -72.2312
lowerback 7.85665 -0.145262 6.06507
upperback 3.27071 0.11489 4.51469
thorax -0.999486 -0.0131028 1.25861
lowerneck -13.312 -0.958741 -10.9615
upperneck 39.1636 -1.43578 3.86595
head 16.4083 -2.25566 3.25976
rclavicle -5.56597e-015 -7.95139e-015
rhumerus -24.6919 -3.64375 -78.0204
rradius 45.8272
rwrist -17.4229
rhand -23.8844 13.0196
rfingers 7.12502
rthumb 2.58898 -16.9445
lclavicle -5.56597e-015 -7.95139e-015
lhumerus -34.7602 5.66269 86.1401
lradius 33.8068
lwrist 4.55662
lhand -17.39 19.0017
lfingers 7.12502
lthumb 8.85903 48.7957
rfemur -9.05012 -5.81381 26.8431
rtibia 28.6824
rfoot -16.8845 -5.53976
rtoes 17.4308
lfemur -18.0434 -2.55641 -12.8762
ltibia 32.1827
lfoot -13.8984 -13.0215
ltoes 0.835105
1066
root 0.803083 20.8701 10.7902 75.6787 -86.2071 -74.9761
lowerback 7.56656 -0.150207 6.23532
upperback 3.17284 0.10334 4.50706
thorax -0.939582 -0.0158931 1.15585
lowerneck -13.272 -0.879726 -11.1065
upperneck 39.1785 -1.38236 4.12455
head 16.4008 -2.22368 3.41053
rclavicle 1.11319e-014 5.24792e-014
rhumerus -24.7456 -3.32506 -78.1698
rradius 45.6635
rwrist -17.4153
rhand -23.8325 13.5237
rfingers 7.12502
rthumb 2.63911 -16.4397
lclavicle 1.11319e-014 5.24792e-014
lhumerus -34.9376 5.75754 86.1041
lradius 33.7976
lwrist 3.98632
lhand -17.2516 18.7572
lfingers 7.12502
lthumb 8.99256 48.5456
rfemur -9.10003 -5.47654 27.0126
rtibia 28.721
rfoot -17.0572 -5.6557
rtoes 17.6151
lfemur -18.0523 -2.27735 -12.7736
ltibia 31.7468
lfoot -12.8878 -12.8759
ltoes -1.57283
1067
root 0.752751 20.8737 10.8019 78.4556 -86.1237 -77.7157
lowerback 7.39355 -0.131136 6.27624
upperback 3.12776 0.120519 4.48382
thorax -0.889824 -0.0051609 1.10686
lowerneck -13.1917 -0.835843 -10.8747
upperneck 39.19 -1.40099 4.1064
head 16.383 -2.20336 3.35704
rclavicle 3.18055e-015 -6.36111e-015
rhumerus -24.7957 -2.96777 -78.3252
rradius 45.4602
rwrist -17.4782
rhand -23.7674 13.767
rfingers 7.12502
rthumb 2.702 -16.1957
lclavicle 3.18055e-015 -6.36111e-015
lhumerus -35.0467 5.35532 86.2095
lradius 33.7777
lwrist 4.0346
lhand -17.5809 18.7528
lfingers 7.12502
lthumb 8.67477 48.5545
rfemur -8.97289 -4.86027 27.1301
rtibia 28.798
rfoot -17.3283 -5.98792
rtoes 17.557
lfemur -17.8594 -1.88074 -12.7428
ltibia 31.3278
lfoot -11.1604 -13.0222
ltoes -0.440633
1068
root 0.701201 20.854 10.8174 80.6784 -85.9824 -80.0331
lowerback 7.32847 -0.0881907 6.40733
upperback 3.11004 0.181536 4.46357
thorax -0.869311 0.026729 1.00799
lowerneck -12.9971 -0.798172 -10.6766
upperneck 39.1395 -1.46633 4.1816
head 16.3091 -2.19188 3.34141
rclavicle 3.57812e-015 1.27222e-014
rhumerus -24.8856 -3.03934 -78.4578
rradius 45.2566
rwrist -17.1426
rhand -23.8715 13.5398
rfingers 7.12502
rthumb 2.60145 -16.4241
lclavicle 3.57812e-015 1.27222e-014
lhumerus -35.1588 4.74091 86.4207
lradius 33.7567
lwrist 4.42797
lhand -17.9519 18.809
lfingers 7.12502
lthumb 8.31671 48.6253
rfemur -8.71827 -4.80225 27.2383
rtibia 28.9132
rfoot -17.5621 -5.87339
rtoes 17.3165
lfemur -17.5147 -1.50948 -12.6508
ltibia 30.9291
lfoot -8.91231 -13.5201
ltoes 7.54209
1069
root 0.649381 20.8255 10.8305 83.3174 -86.0245 -82.6887
lowerback 7.2307 -0.0246783 6.26293
upperback 3.05051 0.254946 4.45797
thorax -0.876442 0.0631568 1.07626
lowerneck -12.8006 -0.729841 -10.5991
upperneck 39.1111 -1.44524 4.24643
head 16.2399 -2.16589 3.35755
rclavicle -5.96354e-015 -3.18055e-014
rhumerus -25.0426 -3.11687 -78.5154
rradius 45.061
rwrist -16.6493
rhand -23.758 13.2547
rfingers 7.12502
rthumb 2.71105 -16.7078
lclavicle -5.96354e-015 -3.18055e-014
lhumerus -35.3342 4.69204 86.5542
lradius 33.7119
lwrist 4.33892
lhand -17.8082 18.8433
lfingers 7.12502
lthumb 8.45545 48.6541
rfemur -8.61169 -4.91195 27.1534
rtibia 29.0803
rfoot -17.8096 -5.64061
rtoes 16.7407
lfemur -17.1764 -1.13576 -12.7552
ltibia 30.5602
lfoot -6.85071 -13.96
ltoes 17.3525
1070
root 0.594616 20.8139 10.8357 87.5001 -86.0162 -86.9012
lowerback 7.0419 -0.0110864 6.01334
upperback 3.06813 0.238218 4.50391
thorax -0.756387 0.0555116 1.26337
lowerneck -12.8425 -0.669601 -10.44
upperneck 39.1963 -1.32576 4.03019
head 16.2797 -2.12961 3.25397
rclavicle -3.97569e-016 -1.59028e-014
rhumerus -25.0682 -2.78287 -78.5831
rradius 44.6981
rwrist -16.3577
rhand -23.4487 13.2414
rfingers 7.12502
rthumb 3.00976 -16.7171
lclavicle -3.97569e-016 -1.59028e-014
lhumerus -35.4205 5.25611 86.4526
lradius 33.5492
lwrist 3.711
lhand -17.5825 19.0123
lfingers 7.12502
lthumb 8.67326 48.8141
rfemur -8.46723 -4.77696 27.1851
rtibia 29.2847
rfoot -18.116 -5.6879
rtoes 16.2665
lfemur -16.6944 -0.951595 -12.7287
ltibia 30.2422
lfoot -5.87854 -14.2488
ltoes 23.3445
1071
root 0.54146 20.8081 10.8397 90.2705 -85.905 -89.7002
lowerback 6.79527 0.0216543 5.96881
upperback 3.12146 0.252045 4.48664
thorax -0.564156 0.0666974 1.26866
lowerneck -12.9235 -0.709414 -10.2972
upperneck 39.1911 -1.38407 3.94306
head 16.3011 -2.14388 3.17979
rclavicle 3.97569e-016 1.74931e-014
rhumerus -25.0755 -2.67758 -78.6609
rradius 44.3894
rwrist -16.1954
rhand -23.0649 13.1294
rfingers 7.12502
rthumb 3.38041 -16.8236
lclavicle 3.97569e-016 1.74931e-014
lhumerus -35.4183 5.56963 86.2787
lradius 33.4076
lwrist 3.0337
lhand -17.2303 18.9229
lfingers 7.12502
lthumb 9.01314 48.7104
rfemur -8.241 -4.6115 27.312
rtibia 29.3838
rfoot -18.3282 -5.77024
rtoes 16.6405
lfemur -16.2275 -0.928517 -12.5854
ltibia 30.0425
lfoot -6.8501 -14.3823
ltoes 23.2067
1072
root 0.491782 20.8013 10.8474 92.2349 -85.8323 -91.6329
lowerback 6.61378 0.0846346 5.85614
upperback 3.08036 0.318266 4.492
thorax -0.505978 0.100768 1.33192
lowerneck -13.0178 -0.784412 -10.2723
upperneck 39.3381 -1.54906 4.03277
head 16.4197 -2.20629 3.19087
rclavicle 0 -1.43125e-014
rhumerus -25.1817 -2.54105 -78.7477
rradius 44.2189
rwrist -16.1382
rhand -22.9142 12.6682
rfingers 7.12502
rthumb 3.52593 -17.2824
lclavicle 0 -1.43125e-014
lhumerus -35.4927 5.40101 86.3563
lradius 33.3616
lwrist 3.02699
lhand -16.8161 18.451
lfingers 7.12502
lthumb 9.41277 48.2208
rfemur -8.01582 -4.5465 27.3508
rtibia 29.3053
rfoot -18.4234 -5.63575
rtoes 16.5584
lfemur -15.9188 -0.84988 -12.5499
ltibia 29.9789
lfoot -8.76506 -13.9003
ltoes 17.3507
1073
root 0.439837 20.8041 10.858 93.4646 -85.6768 -92.8549
lowerback 6.46439 0.0961284 5.74278
upperback 3.0241 0.317024 4.61537
thorax -0.483033 0.0975756 1.52287
lowerneck -13.1071 -0.788916 -10.3505
upperneck 39.5986 -1.58712 4.10826
head 16.5873 -2.2423 3.23784
rclavicle 3.37934e-015 -1.59028e-015
rhumerus -25.227 -2.4023 -78.7587
rradius 43.7836
rwrist -15.897
rhand -23.0031 12.4943
rfingers 7.12502
rthumb 3.44015 -17.4577
lclavicle 3.37934e-015 -1.59028e-015
lhumerus -35.6384 5.174 86.6608
lradius 33.293
lwrist 3.34024
lhand -16.8437 18.5212
lfingers 7.12502
lthumb 9.38614 48.2922
rfemur -7.71666 -4.64335 27.4272
rtibia 29.1413
rfoot -18.4893 -5.35811
rtoes 15.8922
lfemur -15.6149 -0.907921 -12.4548
ltibia 29.9693
lfoot -10.0355 -13.012
ltoes 11.9636
1074
root 0.387649 20.8077 10.8637 94.446 -85.3855 -93.9025
lowerback 6.34751 0.0980137 5.71666
upperback 3.02317 0.30234 4.7932
thorax -0.419928 0.0870428 1.72295
lowerneck -13.0176 -0.778712 -10.3777
upperneck 39.6478 -1.6007 4.12939
head 16.593 -2.25638 3.24972
rclavicle 5.96354e-016 -9.54166e-015
rhumerus -25.1615 -2.63363 -78.6491
rradius 43.0111
rwrist -15.4242
rhand -23.4625 13.2647
rfingers 7.12502
rthumb 2.99644 -16.694
lclavicle 5.96354e-016 -9.54166e-015
lhumerus -35.749 4.93924 86.9794
lradius 33.179
lwrist 3.39809
lhand -17.1804 19.2079
lfingers 7.12502
lthumb 9.06126 48.9932
rfemur -7.37841 -4.47657 27.6893
rtibia 28.9936
rfoot -18.5666 -5.4539
rtoes 15.7673
lfemur -15.2693 -0.959476 -12.2203
ltibia 29.9392
lfoot -10.3909 -12.7474
ltoes 10.863
1075
root 0.339601 20.806 10.8695 95.6996 -85.179 -95.3004
lowerback 6.38229 0.100219 5.60037
upperback 3.01215 0.298986 4.93488
thorax -0.452277 0.0805139 1.93515
lowerneck -12.8934 -0.770012 -10.4375
upperneck 39.6993 -1.6518 4.24251
head 16.5958 -2.27995 3.30233
rclavicle -5.1684e-015 -5.08889e-014
rhumerus -25.1825 -2.45099 -78.5905
rradius 42.306
rwrist -15.5265
rhand -25.1717 14.6371
rfingers 7.12502
rthumb 1.34569 -15.3384
lclavicle -5.1684e-015 -5.08889e-014
lhumerus -35.7903 4.48836 87.3361
lradius 32.9854
lwrist 3.6311
lhand -17.6075 19.4014
lfingers 7.12502
lthumb 8.64916 49.2043
rfemur -7.00794 -3.98515 27.8973
rtibia 28.889
rfoot -18.7701 -5.78831
rtoes 16.5086
lfemur -14.9166 -0.931509 -12.1077
ltibia 29.886
lfoot -10.2843 -13.2427
ltoes 12.3327
